<svg width="21" height="21" viewBox="0 0 21 21" fill="none" xmlns="http://www.w3.org/2000/svg">
<rect width="16.6667" height="16.6667" rx="8.33333" transform="matrix(1 0 0 -1 2.16699 18.833)" fill="#0070D4"/>
<path d="M10.4167 8.36719C10.969 8.36719 11.4167 7.91947 11.4167 7.36719C11.4167 6.8149 10.969 6.36719 10.4167 6.36719C9.86438 6.36719 9.41667 6.8149 9.41667 7.36719C9.41667 7.91947 9.86438 8.36719 10.4167 8.36719Z" fill="white"/>
<path d="M9.2 9.1923C9.08954 9.1923 9 9.28184 9 9.3923V9.9923C9 10.1028 9.08954 10.1923 9.2 10.1923H9.71797C9.82843 10.1923 9.91797 10.2818 9.91797 10.3923V13.4945H9.03398C8.92353 13.4945 8.83398 13.584 8.83398 13.6945V14.2945C8.83398 14.4049 8.92353 14.4945 9.03398 14.4945H11.9673C12.0778 14.4945 12.1673 14.4049 12.1673 14.2945V13.6945C12.1673 13.584 12.0778 13.4945 11.9673 13.4945H11.418V9.3923C11.418 9.28184 11.3284 9.1923 11.218 9.1923H9.2Z" fill="white"/>
</svg>
