<svg width="24" height="24" viewBox="0 0 24 24" fill="none" xmlns="http://www.w3.org/2000/svg">
<path d="M18.6304 4.23433C18.9428 3.9219 19.4493 3.92189 19.7618 4.2343C20.0742 4.54671 20.0742 5.05324 19.7618 5.36567L13.1294 11.9985L19.7657 18.6352C20.0781 18.9476 20.0781 19.4542 19.7657 19.7666C19.4532 20.079 18.9467 20.079 18.6343 19.7665L11.998 13.1299L5.3618 19.7665C5.04939 20.079 4.54285 20.079 4.23043 19.7666C3.918 19.4542 3.91798 18.9476 4.23039 18.6352L10.8667 11.9985L4.2343 5.36567C3.92189 5.05324 3.9219 4.54671 4.23433 4.2343C4.54676 3.92189 5.05329 3.9219 5.3657 4.23433L11.998 10.8671L18.6304 4.23433Z" fill="#6B6B6E"/>
</svg>
