<svg width="28" height="26" viewBox="0 0 28 26" fill="none" xmlns="http://www.w3.org/2000/svg">
<path d="M12.8938 0.825C13.3855 -0.0523446 14.6145 -0.0523434 15.1062 0.825001L27.827 23.5263C28.3186 24.4036 27.7041 25.5003 26.7208 25.5003H1.27919C0.295934 25.5003 -0.318597 24.4036 0.173029 23.5263L12.8938 0.825Z" fill="#FF1500"/>
<path fill-rule="evenodd" clip-rule="evenodd" d="M13.166 8.16699C12.8899 8.16699 12.666 8.39085 12.666 8.66699V17.0003C12.666 17.2765 12.8899 17.5003 13.166 17.5003H14.8327C15.1088 17.5003 15.3327 17.2765 15.3327 17.0003V8.66699C15.3327 8.39085 15.1088 8.16699 14.8327 8.16699H13.166ZM13.166 18.8337C12.8899 18.8337 12.666 19.0575 12.666 19.3337V21.0003C12.666 21.2765 12.8899 21.5003 13.166 21.5003H14.8327C15.1088 21.5003 15.3327 21.2765 15.3327 21.0003V19.3337C15.3327 19.0575 15.1088 18.8337 14.8327 18.8337H13.166Z" fill="white"/>
</svg>

