<svg width="16" height="16" viewBox="0 0 16 16" fill="none" xmlns="http://www.w3.org/2000/svg">
<path d="M4.37611 7.3694C4.37611 7.021 4.65851 6.73856 5.00686 6.73856H6.74267V5.00376C6.74267 4.65536 7.02507 4.37293 7.37342 4.37293C7.72178 4.37293 8.00418 4.65536 8.00418 5.00376V6.73856H9.73752C10.0859 6.73856 10.3683 7.021 10.3683 7.3694C10.3683 7.7178 10.0859 8.00024 9.73752 8.00024H8.00418V9.73503C8.00418 10.0834 7.72178 10.3659 7.37342 10.3659C7.02507 10.3659 6.74267 10.0834 6.74267 9.73503V8.00024H5.00686C4.65851 8.00024 4.37611 7.7178 4.37611 7.3694Z" fill="#363637"/>
<path fill-rule="evenodd" clip-rule="evenodd" d="M11.6427 12.5334C10.4828 13.4945 8.99372 14.0723 7.36973 14.0723C3.66845 14.0723 0.667969 11.0714 0.667969 7.36963C0.667969 3.66787 3.66845 0.666992 7.36973 0.666992C11.071 0.666992 14.0715 3.66787 14.0715 7.36963C14.0715 8.99286 13.4945 10.4813 12.5346 11.6411L15.1499 14.2568C15.3962 14.5031 15.3962 14.9025 15.1499 15.1489C14.9036 15.3952 14.5042 15.3952 14.2579 15.1489L11.6427 12.5334ZM1.92948 7.36963C1.92948 4.36467 4.36516 1.92867 7.36973 1.92867C10.3743 1.92867 12.81 4.36467 12.81 7.36963C12.81 8.79933 12.2586 10.1002 11.357 11.0713C11.2973 11.1009 11.2414 11.1406 11.1918 11.1903C11.142 11.24 11.1023 11.296 11.0727 11.3557C10.1016 12.2585 8.80012 12.8106 7.36973 12.8106C4.36516 12.8106 1.92948 10.3746 1.92948 7.36963Z" fill="#363637"/>
</svg>
