<svg width="21" height="20" viewBox="0 0 21 20" fill="none" xmlns="http://www.w3.org/2000/svg">
<path fill-rule="evenodd" clip-rule="evenodd" d="M10.5 1.66699C8.65905 1.66699 7.16667 3.15938 7.16667 5.00033C7.16667 6.84127 8.65905 8.33366 10.5 8.33366C12.3409 8.33366 13.8333 6.84127 13.8333 5.00033C13.8333 3.15938 12.3409 1.66699 10.5 1.66699ZM8.5 5.00033C8.5 3.89576 9.39543 3.00033 10.5 3.00033C11.6046 3.00033 12.5 3.89576 12.5 5.00033C12.5 6.10489 11.6046 7.00033 10.5 7.00033C9.39543 7.00033 8.5 6.10489 8.5 5.00033Z" fill="#6B6B6E"/>
<path fill-rule="evenodd" clip-rule="evenodd" d="M17.3682 11.3276C13.3559 8.52927 8.04522 8.45158 3.95277 11.1314L3.67827 11.3111C3.25503 11.5883 3 12.0601 3 12.566V16.0002C3 16.8286 3.67157 17.5002 4.5 17.5002H16.4993C17.3278 17.5002 17.9993 16.8286 17.9993 16.0002V12.5372C17.9993 12.0551 17.7637 11.6034 17.3682 11.3276ZM4.68319 12.2468C8.32015 9.86531 13.0398 9.93435 16.6055 12.4212C16.6434 12.4477 16.666 12.491 16.666 12.5372V16.0002C16.666 16.0923 16.5914 16.1669 16.4993 16.1669H4.5C4.40795 16.1669 4.33333 16.0923 4.33333 16.0002V12.566C4.33333 12.5098 4.36167 12.4574 4.4087 12.4266L4.68319 12.2468Z" fill="#6B6B6E"/>
</svg>
