<svg width="16" height="16" viewBox="0 0 16 16" fill="none" xmlns="http://www.w3.org/2000/svg">
<path fill-rule="evenodd" clip-rule="evenodd" d="M7.9987 2.83398C8.27484 2.83398 8.4987 3.05784 8.4987 3.33398V7.50065H12.6654C12.9415 7.50065 13.1654 7.72451 13.1654 8.00065C13.1654 8.27679 12.9415 8.50065 12.6654 8.50065H8.4987V12.6673C8.4987 12.9435 8.27484 13.1673 7.9987 13.1673C7.72256 13.1673 7.4987 12.9435 7.4987 12.6673V8.50065H3.33203C3.05589 8.50065 2.83203 8.27679 2.83203 8.00065C2.83203 7.72451 3.05589 7.50065 3.33203 7.50065H7.4987V3.33398C7.4987 3.05784 7.72256 2.83398 7.9987 2.83398Z" fill="#00417A"/>
</svg>
