<svg width="199" height="48" viewBox="0 0 199 48" fill="none" xmlns="http://www.w3.org/2000/svg">
<g clip-path="url(#clip0_18039_51606)">
<path d="M163.548 8.875C161.49 8.875 160.633 9.60461 160.212 11.5198L155.254 42.1004H165.985L171.765 8.875H163.548Z" fill="#0066B3"/>
<path d="M38.1904 8.8457H28.8289C27.3822 8.8457 26.5675 9.30171 25.6124 10.1997L14.9025 20.6107L17.494 8.85272H9.01034C6.98775 8.85272 6.15203 9.57531 5.74471 11.4414L0 42.0991H10.6396L13.5682 27.6613L23.4845 42.0991H36.7436L23.5407 23.3116L38.1833 8.8457H38.1904Z" fill="#0066B3"/>
<path d="M183.9 34.3132L188.275 8.875H180.065C178.043 8.875 177.179 9.57655 176.744 11.4076L171.771 42.1004H198.002L199.006 34.3132H183.907H183.9Z" fill="#0066B3"/>
<path d="M137.144 19.2573L141.413 42.0998H152.79L145.796 8.87439H135.297C133.646 8.87439 132.958 9.34443 132.228 10.523L118.491 37.694L108.996 29.1281C113.301 27.9215 118.083 24.6242 119.425 19.089C121.813 9.25323 113.505 8.85335 110.738 8.85335H95.4839C93.5105 8.85335 93.1593 9.28129 92.7379 11.0702L89.8024 24.8557C82.316 19.9799 65.3347 10.1091 53.3818 9.95478C50.369 9.91269 48.1778 10.3687 46.0499 11.6736C45.7339 11.877 45.6426 11.8419 45.6004 11.8349L45.769 11.4912C47.0612 9.92672 49.6807 7.39413 54.1051 6.03312C54.1051 6.03312 61.1561 3.5777 70.6299 9.30936C76.1359 12.6487 79.8369 15.4479 83.4397 18.4225C80.7078 7.12052 70.1454 -0.954311 58.0731 0.0909974C47.1244 1.01704 38.5144 9.10591 36.4707 19.3205C42.3067 14.0939 53.5082 12.2418 70.637 18.0928C74.4855 19.4046 78.032 20.8358 81.2766 22.288C84.2403 23.6069 87.239 25.1784 90.3712 26.9814C96.8323 30.6926 104.045 35.87 109.888 42.0998H125.914L137.144 19.2573ZM100.73 25.3959C101.06 23.7893 102.858 15.1252 103.097 13.9817H107.051C107.051 13.9817 111.011 13.7431 109.6 19.0819C109.6 19.0819 108.027 25.3959 100.737 25.3959H100.73Z" fill="url(#paint0_radial_18039_51606)"/>
<path d="M99.0649 33.675C98.2081 37.4002 97.3021 42.1006 97.3021 42.1006H86.1287L88.671 30.1462C86.1779 29.3324 84.4292 28.8413 83.6356 28.6378C81.599 38.8243 73.1505 46.9763 62.2229 47.9024C55.1298 48.5057 48.4932 46.0433 43.6755 41.5463L43.6474 41.5253C43.6474 41.5253 39.0053 37.302 39.3635 31.1985C39.7216 24.9337 45.2416 22.387 45.2416 22.387C51.6605 18.9494 65.8748 18.5776 85.9742 27.1786C85.9742 27.1786 92.7232 29.8305 99.0649 33.6679V33.675Z" fill="url(#paint1_radial_18039_51606)"/>
</g>
<defs>
<radialGradient id="paint0_radial_18039_51606" cx="0" cy="0" r="1" gradientUnits="userSpaceOnUse" gradientTransform="translate(57.3199 18.322) scale(29.2104 29.1797)">
<stop stop-color="#00AFDC"/>
<stop offset="0.2" stop-color="#00AFDC"/>
<stop offset="1" stop-color="#0066B3"/>
</radialGradient>
<radialGradient id="paint1_radial_18039_51606" cx="0" cy="0" r="1" gradientUnits="userSpaceOnUse" gradientTransform="translate(56.6686 14.5973) scale(29.0949 29.0643)">
<stop stop-color="#00AFDC"/>
<stop offset="0.2" stop-color="#00AFDC"/>
<stop offset="1" stop-color="#0066B3"/>
</radialGradient>
<clipPath id="clip0_18039_51606">
<rect width="199" height="48" fill="white"/>
</clipPath>
</defs>
</svg>
