 <svg width="17" height="17" viewBox="0 0 17 17" fill="none" xmlns="http://www.w3.org/2000/svg">
<path d="M11.9667 13.8333L13.1667 14.8333V15.1667H3.83333V14.8333L5.03333 13.8333H3.83333C3.47971 13.8333 3.14057 13.6929 2.89052 13.4428C2.64048 13.1928 2.5 12.8536 2.5 12.5V5.16667C2.5 4.45942 2.78095 3.78115 3.28105 3.28105C3.78115 2.78095 4.45942 2.5 5.16667 2.5H11.8333C12.5406 2.5 13.2189 2.78095 13.719 3.28105C14.219 3.78115 14.5 4.45942 14.5 5.16667V12.5C14.5 12.8536 14.3595 13.1928 14.1095 13.4428C13.8594 13.6929 13.5203 13.8333 13.1667 13.8333H11.9667ZM3.83333 5.16667V7.83333H13.1667V5.16667H3.83333ZM8.5 12.5C8.85362 12.5 9.19276 12.3595 9.44281 12.1095C9.69286 11.8594 9.83333 11.5203 9.83333 11.1667C9.83333 10.813 9.69286 10.4739 9.44281 10.2239C9.19276 9.97381 8.85362 9.83333 8.5 9.83333C8.14638 9.83333 7.80724 9.97381 7.55719 10.2239C7.30714 10.4739 7.16667 10.813 7.16667 11.1667C7.16667 11.5203 7.30714 11.8594 7.55719 12.1095C7.80724 12.3595 8.14638 12.5 8.5 12.5Z" fill="#0078E3"/>
</svg>
