<svg width="16" height="16" viewBox="0 0 16 16" fill="none" xmlns="http://www.w3.org/2000/svg">
<path fill-rule="evenodd" clip-rule="evenodd" d="M11.6417 12.5334C10.4818 13.4945 8.99275 14.0723 7.36875 14.0723C3.66747 14.0723 0.666992 11.0714 0.666992 7.36963C0.666992 3.66787 3.66747 0.666992 7.36875 0.666992C11.07 0.666992 14.0705 3.66787 14.0705 7.36963C14.0705 8.99286 13.4936 10.4813 12.5336 11.6411L15.1489 14.2568C15.3952 14.5031 15.3952 14.9025 15.1489 15.1489C14.9026 15.3952 14.5032 15.3952 14.2569 15.1489L11.6417 12.5334ZM1.9285 7.36963C1.9285 4.36467 4.36418 1.92867 7.36875 1.92867C10.3733 1.92867 12.809 4.36467 12.809 7.36963C12.809 8.79933 12.2576 10.1002 11.356 11.0713C11.2964 11.1009 11.2405 11.1406 11.1908 11.1903C11.1411 11.24 11.1014 11.296 11.0717 11.3557C10.1006 12.2585 8.79915 12.8106 7.36875 12.8106C4.36418 12.8106 1.9285 10.3746 1.9285 7.36963Z" fill="#0061B8"/>
<path d="M4.33366 7.36699C4.33366 7.01721 4.61721 6.73366 4.96699 6.73366H9.70032C10.0501 6.73366 10.3337 7.01721 10.3337 7.36699C10.3337 7.71677 10.0501 8.00033 9.70033 8.00033H4.96699C4.61721 8.00033 4.33366 7.71677 4.33366 7.36699Z" fill="#0061B8"/>
</svg>
