<svg width="16" height="16" viewBox="0 0 16 16" fill="none" xmlns="http://www.w3.org/2000/svg">
<g clip-path="url(#clip0_19231_340455)">
<path d="M9.49193 12.667C10.0686 12.667 10.3733 13.3497 9.9886 13.779C9.73871 14.0586 9.43255 14.2823 9.09017 14.4353C8.7478 14.5884 8.37695 14.6673 8.00193 14.667C7.62691 14.6673 7.25606 14.5884 6.91369 14.4353C6.57132 14.2823 6.26515 14.0586 6.01527 13.779C5.64727 13.3683 5.90993 12.7263 6.43793 12.6717L6.51126 12.6677L9.49193 12.667Z" fill="white"/>
<path d="M8.00127 1.33301C8.9066 1.33301 9.67193 1.93501 9.91793 2.76034L9.9486 2.87434L9.95393 2.90301C10.6889 3.31761 11.3151 3.90041 11.7814 4.60367C12.2477 5.30694 12.5408 6.11066 12.6366 6.94901L12.6553 7.14034L12.6679 7.33301V9.28701L12.6819 9.37768C12.7732 9.86889 13.045 10.3082 13.4439 10.609L13.5553 10.687L13.6633 10.753C14.2366 11.0777 14.0366 11.9303 13.4119 11.9957L13.3346 11.9997H2.66793C1.9826 11.9997 1.74327 11.0903 2.33927 10.753C2.59329 10.6093 2.81276 10.4116 2.98229 10.1741C3.15182 9.93646 3.26729 9.66464 3.3206 9.37768L3.3346 9.28234L3.33527 7.30234C3.37592 6.43159 3.62937 5.58408 4.07346 4.83399C4.51754 4.08389 5.13871 3.45408 5.8826 2.99967L6.04793 2.90234L6.0546 2.87367C6.1489 2.47502 6.36323 2.1149 6.66866 1.8419C6.97408 1.5689 7.35591 1.39616 7.7626 1.34701L7.88393 1.33567L8.00127 1.33301Z" fill="white"/>
</g>
<defs>
<clipPath id="clip0_19231_340455">
<rect width="16" height="16" fill="white"/>
</clipPath>
</defs>
</svg>

