<svg width="20" height="20" viewBox="0 0 20 20" fill="none" xmlns="http://www.w3.org/2000/svg">
<path fill-rule="evenodd" clip-rule="evenodd" d="M6.66667 1.04102C7.01184 1.04102 7.29167 1.32084 7.29167 1.66602V2.70768H12.7083V1.66602C12.7083 1.32084 12.9882 1.04102 13.3333 1.04102C13.6785 1.04102 13.9583 1.32084 13.9583 1.66602V2.70768H15.8333C17.099 2.70768 18.125 3.7337 18.125 4.99935V16.666C18.125 17.9317 17.099 18.9577 15.8333 18.9577H4.16667C2.90101 18.9577 1.875 17.9317 1.875 16.666V4.99935C1.875 3.7337 2.90101 2.70768 4.16667 2.70768H6.04167V1.66602C6.04167 1.32084 6.32149 1.04102 6.66667 1.04102ZM6.04167 3.95768H4.16667C3.59137 3.95768 3.125 4.42405 3.125 4.99935V7.70768H16.875V4.99935C16.875 4.42405 16.4086 3.95768 15.8333 3.95768H13.9583V4.99935C13.9583 5.34453 13.6785 5.62435 13.3333 5.62435C12.9882 5.62435 12.7083 5.34453 12.7083 4.99935V3.95768H7.29167V4.99935C7.29167 5.34453 7.01184 5.62435 6.66667 5.62435C6.32149 5.62435 6.04167 5.34453 6.04167 4.99935V3.95768ZM16.875 8.95768H3.125V16.666C3.125 17.2413 3.59137 17.7077 4.16667 17.7077H15.8333C16.4086 17.7077 16.875 17.2413 16.875 16.666V8.95768Z" fill="#363D44"/>
</svg>
