<svg width="14" height="14" viewBox="0 0 14 14" fill="none" xmlns="http://www.w3.org/2000/svg">
<path fill-rule="evenodd" clip-rule="evenodd" d="M4.08333 1.89551C4.32496 1.89551 4.52083 2.09138 4.52083 2.33301V10.6101L6.10731 9.02365C6.27816 8.85279 6.55517 8.85279 6.72603 9.02365C6.89688 9.1945 6.89688 9.47151 6.72603 9.64237L4.39269 11.9757C4.22184 12.1466 3.94483 12.1466 3.77397 11.9757L1.44064 9.64237C1.26979 9.47151 1.26979 9.1945 1.44064 9.02365C1.6115 8.85279 1.8885 8.85279 2.05936 9.02365L3.64583 10.6101V2.33301C3.64583 2.09138 3.84171 1.89551 4.08333 1.89551ZM9.60731 2.02365C9.77816 1.85279 10.0552 1.85279 10.226 2.02365L12.5594 4.35698C12.7302 4.52784 12.7302 4.80485 12.5594 4.9757C12.3885 5.14655 12.1115 5.14655 11.9406 4.9757L10.3542 3.38923V11.6663C10.3542 11.908 10.1583 12.1038 9.91667 12.1038C9.67504 12.1038 9.47917 11.908 9.47917 11.6663V3.38923L7.89269 4.9757C7.72184 5.14655 7.44483 5.14655 7.27397 4.9757C7.10312 4.80485 7.10312 4.52784 7.27397 4.35698L9.60731 2.02365Z" fill="#C3CCDD"/>
</svg>

