<svg width="16" height="16" viewBox="0 0 16 16" fill="none" xmlns="http://www.w3.org/2000/svg">
<path d="M8.38262 10.7027C8.28207 10.8073 8.14325 10.8664 7.99818 10.8664C7.8531 10.8664 7.71429 10.8073 7.61373 10.7027L4.2804 7.23608C4.07624 7.02376 4.08286 6.68614 4.29519 6.48198C4.50751 6.27782 4.84513 6.28444 5.04929 6.49676L7.46484 9.00894V2.53309C7.46484 2.23854 7.70363 1.99976 7.99818 1.99976C8.29273 1.99976 8.53151 2.23854 8.53151 2.53309V9.00894L10.9471 6.49676C11.1512 6.28444 11.4888 6.27782 11.7012 6.48198C11.9135 6.68614 11.9201 7.02376 11.716 7.23608L8.38262 10.7027Z" fill="#00417A"/>
<path d="M2.39922 10.6668C2.39929 10.3723 2.16057 10.1334 1.86602 10.1334C1.57146 10.1333 1.33262 10.372 1.33255 10.6666L1.33203 12.7999C1.332 12.9414 1.38817 13.077 1.4882 13.1771C1.58822 13.2771 1.72389 13.3334 1.86536 13.3334H14.1315C14.4261 13.3334 14.6648 13.0946 14.6648 12.8V10.6667C14.6648 10.3721 14.4261 10.1334 14.1315 10.1334C13.837 10.1334 13.5982 10.3721 13.5982 10.6667V12.2667H2.39883L2.39922 10.6668Z" fill="#00417A"/>
</svg>

