<svg width="57" height="57" viewBox="0 0 57 57" fill="none" xmlns="http://www.w3.org/2000/svg">
<g filter="url(#filter0_d_19183_254405)">
<path d="M28.5 19C38.4411 19 46.5 27.0589 46.5 37C46.5 46.9411 38.4411 55 28.5 55C18.5589 55 10.5 46.9411 10.5 37C10.5 27.0589 18.5589 19 28.5 19Z" fill="#0097C1" fill-opacity="0.2"/>
<rect x="15.5" y="24" width="26" height="26" rx="13" fill="white"/>
<rect x="15.5" y="24" width="26" height="26" rx="13" stroke="#00B2E3" stroke-width="2"/>
<g clip-path="url(#clip0_19183_254405)">
<path d="M31.9667 42.3333L33.1667 43.3333V43.6667H23.8333V43.3333L25.0333 42.3333H23.8333C23.4797 42.3333 23.1406 42.1929 22.8905 41.9428C22.6405 41.6928 22.5 41.3536 22.5 41V33.6667C22.5 32.9594 22.781 32.2811 23.281 31.781C23.7811 31.281 24.4594 31 25.1667 31H31.8333C32.5406 31 33.2189 31.281 33.719 31.781C34.219 32.2811 34.5 32.9594 34.5 33.6667V41C34.5 41.3536 34.3595 41.6928 34.1095 41.9428C33.8594 42.1929 33.5203 42.3333 33.1667 42.3333H31.9667ZM23.8333 33.6667V36.3333H33.1667V33.6667H23.8333ZM28.5 41C28.8536 41 29.1928 40.8595 29.4428 40.6095C29.6929 40.3594 29.8333 40.0203 29.8333 39.6667C29.8333 39.313 29.6929 38.9739 29.4428 38.7239C29.1928 38.4738 28.8536 38.3333 28.5 38.3333C28.1464 38.3333 27.8072 38.4738 27.5572 38.7239C27.3071 38.9739 27.1667 39.313 27.1667 39.6667C27.1667 40.0203 27.3071 40.3594 27.5572 40.6095C27.8072 40.8595 28.1464 41 28.5 41Z" fill="#00B2E3"/>
</g>
<path fill-rule="evenodd" clip-rule="evenodd" d="M33.5 24L28.5 18L23.5 24C25.0782 23.5413 26.7578 23.294 28.5 23.294C30.2422 23.294 31.9218 23.5413 33.5 24Z" fill="#00B2E3"/>
</g>
<defs>
<filter id="filter0_d_19183_254405" x="0.5" y="0" width="56" height="58" filterUnits="userSpaceOnUse" color-interpolation-filters="sRGB">
<feFlood flood-opacity="0" result="BackgroundImageFix"/>
<feColorMatrix in="SourceAlpha" type="matrix" values="0 0 0 0 0 0 0 0 0 0 0 0 0 0 0 0 0 0 127 0" result="hardAlpha"/>
<feOffset dy="-8"/>
<feGaussianBlur stdDeviation="5"/>
<feComposite in2="hardAlpha" operator="out"/>
<feColorMatrix type="matrix" values="0 0 0 0 0 0 0 0 0 0 0 0 0 0 0 0 0 0 0.3 0"/>
<feBlend mode="normal" in2="BackgroundImageFix" result="effect1_dropShadow_19183_254405"/>
<feBlend mode="normal" in="SourceGraphic" in2="effect1_dropShadow_19183_254405" result="shape"/>
</filter>
<clipPath id="clip0_19183_254405">
<rect width="16" height="16" fill="white" transform="translate(20.5 29)"/>
</clipPath>
</defs>
</svg>

