<svg width="16" height="16" viewBox="0 0 16 16" fill="none" xmlns="http://www.w3.org/2000/svg">
<path fill-rule="evenodd" clip-rule="evenodd" d="M8.15143 2.48911C8.0641 2.41439 7.93538 2.41439 7.84805 2.48911L2.51472 7.05207C2.4629 7.0964 2.43307 7.16118 2.43307 7.22937V13.2557C2.43307 13.3846 2.53754 13.489 2.66641 13.489H5.83307C5.96194 13.489 6.06641 13.3846 6.06641 13.2557V10.2558C6.06641 9.83242 6.40965 9.48917 6.83307 9.48917H9.16641C9.58982 9.48917 9.93307 9.83242 9.93307 10.2558V13.2557C9.93307 13.3846 10.0375 13.489 10.1664 13.489H13.3331C13.4619 13.489 13.5664 13.3846 13.5664 13.2557V7.22937C13.5664 7.16118 13.5366 7.0964 13.4848 7.05207L8.15143 2.48911ZM7.28463 1.83057C7.69632 1.47835 8.30316 1.47835 8.71484 1.83057L14.0482 6.39353C14.2924 6.60252 14.4331 6.9079 14.4331 7.22937V13.2557C14.4331 13.8632 13.9406 14.3557 13.3331 14.3557H10.1664C9.55889 14.3557 9.06641 13.8632 9.06641 13.2557V10.3558H6.93307V13.2557C6.93307 13.8632 6.44059 14.3557 5.83307 14.3557H2.66641C2.05889 14.3557 1.56641 13.8632 1.56641 13.2557V7.22937C1.56641 6.9079 1.70703 6.60252 1.9513 6.39353L7.28463 1.83057Z" fill="#6B6B6E"/>
</svg>
