<svg width="17" height="18" viewBox="0 0 17 18" fill="none" xmlns="http://www.w3.org/2000/svg">
<path d="M2.66536 0.708008C2.01337 0.708008 1.38809 0.96701 0.92706 1.42804C0.466033 1.88906 0.207031 2.51435 0.207031 3.16634V14.833C0.207031 15.485 0.466034 16.1103 0.92706 16.5713C1.38809 17.0323 2.01337 17.2913 2.66536 17.2913H5.9987C6.43592 17.2913 6.79036 16.9369 6.79036 16.4997C6.79036 16.0625 6.43592 15.708 5.9987 15.708H2.66536C2.4333 15.708 2.21074 15.6158 2.04665 15.4517C1.88255 15.2876 1.79036 15.0651 1.79036 14.833V3.16634C1.79036 2.93428 1.88255 2.71172 2.04665 2.54762C2.21074 2.38353 2.4333 2.29134 2.66536 2.29134H5.9987C6.43592 2.29134 6.79036 1.9369 6.79036 1.49967C6.79036 1.06245 6.43592 0.708008 5.9987 0.708008H2.66536Z" fill="#6B6B6E"/>
<path d="M12.3918 4.27322C12.0827 3.96405 11.5814 3.96405 11.2722 4.27322C10.9631 4.58238 10.9631 5.08364 11.2722 5.3928L14.0874 8.20801H5.9987C5.56147 8.20801 5.20703 8.56245 5.20703 8.99967C5.20703 9.4369 5.56147 9.79134 5.9987 9.79134H14.0874L11.2722 12.6065C10.9631 12.9157 10.9631 13.417 11.2722 13.7261C11.5814 14.0353 12.0827 14.0353 12.3918 13.7261L16.5585 9.55947C16.7034 9.41455 16.7804 9.22742 16.7895 9.03765C16.7901 9.025 16.7904 9.01234 16.7904 8.99967C16.7904 8.89233 16.769 8.78998 16.7303 8.69664C16.6917 8.60326 16.6344 8.51578 16.5585 8.43988L12.3918 4.27322Z" fill="#6B6B6E"/>
</svg>
