<svg width="20" height="20" viewBox="0 0 20 20" fill="none" xmlns="http://www.w3.org/2000/svg">
<path d="M3.4974 10.0003C3.4974 6.41399 6.42204 3.50033 10.0376 3.50033C12.4934 3.50033 14.6324 4.84518 15.7508 6.83374H13.166C12.7978 6.83374 12.4993 7.13222 12.4993 7.50041C12.4993 7.8686 12.7978 8.16707 13.166 8.16707H17.3327C17.7009 8.16707 17.9993 7.8686 17.9993 7.50041V3.33374C17.9993 2.96555 17.7009 2.66707 17.3327 2.66707C16.9645 2.66707 16.666 2.96555 16.666 3.33374V5.77103C15.2656 3.60295 12.8199 2.16699 10.0376 2.16699C5.69271 2.16699 2.16406 5.67058 2.16406 10.0003C2.16406 14.33 5.69271 17.8337 10.0376 17.8337C13.9823 17.8337 17.2526 14.947 17.8232 11.175C17.8783 10.811 17.6278 10.4712 17.2638 10.4162C16.8997 10.3611 16.56 10.6116 16.5049 10.9756C16.0322 14.0999 13.3186 16.5003 10.0376 16.5003C6.42204 16.5003 3.4974 13.5866 3.4974 10.0003Z" fill="#C3CCDD"/>
</svg>

