<svg width="12" height="12" viewBox="0 0 12 12" fill="none" xmlns="http://www.w3.org/2000/svg">
<path d="M11.9625 4.52526C11.8725 4.2358 11.633 4.02483 11.3446 3.98108L8.12587 3.49245L6.68638 0.445697C6.55742 0.172769 6.29134 0 5.99997 0C5.7086 0 5.44252 0.172769 5.3136 0.445697L3.87411 3.49245L0.65536 3.9811C0.367027 4.02485 0.127497 4.23582 0.0374776 4.52528C-0.0525421 4.81473 0.0225364 5.13248 0.231184 5.34488L2.5603 7.71648L2.01044 11.0652C1.96116 11.3652 2.0792 11.6684 2.31493 11.8473C2.55066 12.0262 2.86313 12.0497 3.12105 11.9081L5.99997 10.3271L8.87889 11.9081C8.99091 11.9697 9.11319 12 9.23501 12C9.39374 12 9.55166 11.9485 9.68501 11.8473C9.92072 11.6684 10.0388 11.3652 9.9895 11.0653L9.43968 7.71652L11.7688 5.34488C11.9775 5.13242 12.0525 4.81467 11.9625 4.52526Z" fill="#FFA845"/>
</svg>
