<svg width="16" height="17" viewBox="0 0 16 17" fill="none" xmlns="http://www.w3.org/2000/svg">
<path d="M1.33301 8.50033C1.33301 12.1822 4.31778 15.167 7.99967 15.167C11.6816 15.167 14.6663 12.1822 14.6663 8.50033C14.6663 4.81843 11.6816 1.83366 7.99967 1.83366C4.31778 1.83366 1.33301 4.81843 1.33301 8.50033Z" fill="#F73750"/>
<path d="M9.62294 6.12294C9.83117 5.91472 10.1686 5.91482 10.3768 6.12294C10.5851 6.33122 10.5851 6.66857 10.3768 6.87685L8.75282 8.49989L10.3759 10.1229C10.5842 10.3312 10.5842 10.6686 10.3759 10.8768C10.1676 11.0851 9.83024 11.0851 9.62196 10.8768L7.99892 9.2538L6.37685 10.8768C6.16857 11.0851 5.83121 11.0851 5.62294 10.8768C5.41484 10.6686 5.41475 10.3312 5.62294 10.1229L7.24501 8.49989L5.62196 6.87685C5.41382 6.66856 5.41373 6.33118 5.62196 6.12294C5.8302 5.91471 6.16758 5.91479 6.37587 6.12294L7.99892 7.74599L9.62294 6.12294Z" fill="white"/>
</svg>
