<svg width="16" height="16" viewBox="0 0 16 16" fill="none" xmlns="http://www.w3.org/2000/svg">
<path d="M9.99813 13.2533C10.0248 13.4533 9.95813 13.6667 9.8048 13.8067C9.74312 13.8685 9.66987 13.9175 9.58922 13.951C9.50857 13.9844 9.42211 14.0016 9.3348 14.0016C9.24749 14.0016 9.16103 13.9844 9.08038 13.951C8.99974 13.9175 8.92648 13.8685 8.8648 13.8067L6.19147 11.1333C6.1188 11.0622 6.06354 10.9753 6.03001 10.8793C5.99647 10.7833 5.98556 10.6809 5.99813 10.58V7.16667L2.8048 3.08C2.69654 2.94102 2.64769 2.76484 2.66893 2.58995C2.69016 2.41507 2.77976 2.2557 2.91813 2.14667C3.0448 2.05333 3.1848 2 3.33147 2H12.6648C12.8115 2 12.9515 2.05333 13.0781 2.14667C13.2165 2.2557 13.3061 2.41507 13.3273 2.58995C13.3486 2.76484 13.2997 2.94102 13.1915 3.08L9.99813 7.16667V13.2533ZM4.69147 3.33333L7.33147 6.70667V10.3867L8.6648 11.72V6.7L11.3048 3.33333H4.69147Z" fill="#0061B8"/>
</svg>
