<svg width="21" height="20" viewBox="0 0 21 20" fill="none" xmlns="http://www.w3.org/2000/svg">
<path d="M11.1654 6.24976C11.1654 5.88157 10.8669 5.58309 10.4987 5.58309C10.1305 5.58309 9.83203 5.88157 9.83203 6.24976V10C9.83203 10.3682 10.1305 10.6667 10.4987 10.6667H14.2489C14.6171 10.6667 14.9156 10.3682 14.9156 10C14.9156 9.63181 14.6171 9.33333 14.2489 9.33333H11.1654V6.24976Z" fill="#363637"/>
<path fill-rule="evenodd" clip-rule="evenodd" d="M10.4993 18.3329C15.1017 18.3329 18.8327 14.6019 18.8327 9.99959C18.8327 5.39722 15.1017 1.66626 10.4993 1.66626C5.89697 1.66626 2.16602 5.39722 2.16602 9.99959C2.16602 14.6019 5.89697 18.3329 10.4993 18.3329ZM17.4993 9.99959C17.4993 13.8655 14.3653 16.9996 10.4993 16.9996C6.63336 16.9996 3.49935 13.8656 3.49935 9.99959C3.49935 6.1336 6.63335 2.99959 10.4993 2.99959C14.3653 2.99959 17.4993 6.1336 17.4993 9.99959Z" fill="#363637"/>
</svg>
