<svg width="20" height="20" viewBox="0 0 20 20" fill="none" xmlns="http://www.w3.org/2000/svg">
<path d="M14.3333 16.6667L15.8333 17.9167V18.3333H4.16667V17.9167L5.66667 16.6667H4.16667C3.72464 16.6667 3.30072 16.4911 2.98816 16.1785C2.67559 15.866 2.5 15.442 2.5 15V5.83333C2.5 4.94928 2.85119 4.10143 3.47631 3.47631C4.10143 2.85119 4.94928 2.5 5.83333 2.5H14.1667C15.0507 2.5 15.8986 2.85119 16.5237 3.47631C17.1488 4.10143 17.5 4.94928 17.5 5.83333V15C17.5 15.442 17.3244 15.866 17.0118 16.1785C16.6993 16.4911 16.2754 16.6667 15.8333 16.6667H14.3333ZM4.16667 5.83333V9.16667H15.8333V5.83333H4.16667ZM10 15C10.442 15 10.866 14.8244 11.1785 14.5118C11.4911 14.1993 11.6667 13.7754 11.6667 13.3333C11.6667 12.8913 11.4911 12.4674 11.1785 12.1548C10.866 11.8423 10.442 11.6667 10 11.6667C9.55797 11.6667 9.13405 11.8423 8.82149 12.1548C8.50893 12.4674 8.33333 12.8913 8.33333 13.3333C8.33333 13.7754 8.50893 14.1993 8.82149 14.5118C9.13405 14.8244 9.55797 15 10 15Z" fill="white"/>
</svg>
