<svg width="57" height="58" viewBox="0 0 57 58" fill="none" xmlns="http://www.w3.org/2000/svg">
<g filter="url(#filter0_d_19183_274614)">
<path d="M28.5 18.5C38.4411 18.5 46.5 26.5589 46.5 36.5C46.5 46.4411 38.4411 54.5 28.5 54.5C18.5589 54.5 10.5 46.4411 10.5 36.5C10.5 26.5589 18.5589 18.5 28.5 18.5Z" fill="#0078E3" fill-opacity="0.2"/>
<rect x="15.5" y="23.5" width="26" height="26" rx="13" fill="white"/>
<rect x="15.5" y="23.5" width="26" height="26" rx="13" stroke="#0078E3" stroke-width="2"/>
<g clip-path="url(#clip0_19183_274614)">
<path d="M31.9667 41.8333L33.1667 42.8333V43.1667H23.8333V42.8333L25.0333 41.8333H23.8333C23.4797 41.8333 23.1406 41.6929 22.8905 41.4428C22.6405 41.1928 22.5 40.8536 22.5 40.5V33.1667C22.5 32.4594 22.781 31.7811 23.281 31.281C23.7811 30.781 24.4594 30.5 25.1667 30.5H31.8333C32.5406 30.5 33.2189 30.781 33.719 31.281C34.219 31.7811 34.5 32.4594 34.5 33.1667V40.5C34.5 40.8536 34.3595 41.1928 34.1095 41.4428C33.8594 41.6929 33.5203 41.8333 33.1667 41.8333H31.9667ZM23.8333 33.1667V35.8333H33.1667V33.1667H23.8333ZM28.5 40.5C28.8536 40.5 29.1928 40.3595 29.4428 40.1095C29.6929 39.8594 29.8333 39.5203 29.8333 39.1667C29.8333 38.813 29.6929 38.4739 29.4428 38.2239C29.1928 37.9738 28.8536 37.8333 28.5 37.8333C28.1464 37.8333 27.8072 37.9738 27.5572 38.2239C27.3071 38.4739 27.1667 38.813 27.1667 39.1667C27.1667 39.5203 27.3071 39.8594 27.5572 40.1095C27.8072 40.3595 28.1464 40.5 28.5 40.5Z" fill="#0078E3"/>
</g>
<path fill-rule="evenodd" clip-rule="evenodd" d="M33.5 49.5L28.5 55.5L23.5 49.5C25.0782 49.9587 26.7578 50.206 28.5 50.206C30.2422 50.206 31.9218 49.9587 33.5 49.5Z" fill="#0078E3"/>
</g>
<defs>
<filter id="filter0_d_19183_274614" x="0.5" y="0.5" width="56" height="57" filterUnits="userSpaceOnUse" color-interpolation-filters="sRGB">
<feFlood flood-opacity="0" result="BackgroundImageFix"/>
<feColorMatrix in="SourceAlpha" type="matrix" values="0 0 0 0 0 0 0 0 0 0 0 0 0 0 0 0 0 0 127 0" result="hardAlpha"/>
<feOffset dy="-8"/>
<feGaussianBlur stdDeviation="5"/>
<feComposite in2="hardAlpha" operator="out"/>
<feColorMatrix type="matrix" values="0 0 0 0 0 0 0 0 0 0 0 0 0 0 0 0 0 0 0.3 0"/>
<feBlend mode="normal" in2="BackgroundImageFix" result="effect1_dropShadow_19183_274614"/>
<feBlend mode="normal" in="SourceGraphic" in2="effect1_dropShadow_19183_274614" result="shape"/>
</filter>
<clipPath id="clip0_19183_274614">
<rect width="16" height="16" fill="white" transform="translate(20.5 28.5)"/>
</clipPath>
</defs>
</svg>

